Coordinates
version=1
nRows=10
nColumns=40
inDegrees=yes

Units are S.I. units (second, meters, Newtons, ...)
Angles are in degrees.

endheader
time	pelvis_tilt	pelvis_list	pelvis_rotation	pelvis_tx	pelvis_ty	pelvis_tz	hip_flexion_r	hip_adduction_r	hip_rotation_r	knee_angle_r	knee_angle_r_beta	ankle_angle_r	subtalar_angle_r	mtp_angle_r	hip_flexion_l	hip_adduction_l	hip_rotation_l	knee_angle_l	knee_angle_l_beta	ankle_angle_l	subtalar_angle_l	mtp_angle_l	lumbar_extension	lumbar_bending	lumbar_rotation	arm_flex_r	arm_add_r	arm_rot_r	elbow_flex_r	pro_sup_r	wrist_flex_r	wrist_dev_r	arm_flex_l	arm_add_l	arm_rot_l	elbow_flex_l	pro_sup_l	wrist_flex_l	wrist_dev_l
     48.44500000	     -5.84788509	     -0.97119885	     -3.10170149	      1.02205891	      0.92759679	      0.47283497	     29.87049806	     -6.95709659	    -10.10482897	     20.48763497	     20.48763497	      1.13701458	      1.81182413	      2.99091307	      0.89787946	     -0.73456108	    -10.39040039	      9.83038976	      9.83038976	     17.58239720	     -1.23433678	      1.06491517	    -12.77786833	      1.71281849	      3.13600678	     -7.33074292	    -19.05653099	     -6.31395884	     37.99545519	     46.62142348	      0.00000000	      0.00000000	     10.50934315	    -19.22385736	     -8.97246260	     96.02672639	     48.04916806	      0.00000000	      0.00000000
     48.45721429	     -6.04226370	     -0.68984982	     -2.99058776	      1.02285262	      0.92564591	      0.47490737	     29.40152203	     -6.88624741	    -10.45723636	     18.40247631	     18.40247631	      1.02395674	      2.47633807	      3.68498428	      0.41257501	     -0.53716344	    -10.34604226	      9.58990801	      9.58990801	     17.94143756	     -1.00461113	      0.90517573	    -12.36461741	      1.36780134	      3.03391753	     -7.91854003	    -18.89411221	     -6.24125301	     38.03334682	     46.60557989	      0.00000000	      0.00000000	     10.96170128	    -19.31999523	     -9.16163173	     96.73523160	     48.07845755	      0.00000000	      0.00000000
     48.46942857	     -6.05315882	     -0.74583580	     -2.85099014	      1.02385722	      0.92411235	      0.47709967	     28.58038987	     -6.54447704	    -11.18463626	     16.56162985	     16.56162985	      0.92811539	      3.44601970	      4.40363081	     -0.40431497	     -0.70000589	    -10.31183681	      9.16044637	      9.16044637	     18.30107291	     -0.61116037	      0.82229648	    -12.27587761	      1.45826385	      3.12118329	     -8.52016763	    -18.78690032	     -6.14470698	     38.24085862	     46.58057934	      0.00000000	      0.00000000	     11.27498399	    -19.12119056	     -9.28418783	     97.96250269	     48.11705351	      0.00000000	      0.00000000
     48.48164286	     -6.00094460	     -0.77417147	     -2.66460871	      1.02484259	      0.92252702	      0.47937887	     28.08028594	     -6.39561805	    -12.01790466	     15.88184573	     15.88184573	      1.26682491	      4.60823360	      5.23719814	     -1.14872077	     -0.90327396	    -10.55599269	      9.00667118	      9.00667118	     18.83283724	      0.13891021	      0.79195918	    -12.29461429	      1.50338138	      2.82980359	     -9.38276576	    -18.93389987	     -5.71631081	     40.14977702	     46.43970741	      0.00000000	      0.00000000	     10.81740682	    -18.99246523	     -9.84987129	    100.23579848	     48.22374203	      0.00000000	      0.00000000
     48.49385714	     -6.17116107	     -0.82604995	     -2.40620435	      1.02547628	      0.92076136	      0.48180231	     27.96878582	     -6.18312638	    -12.32493955	     15.73657723	     15.73657723	      1.27414823	      4.51668351	      5.22826481	     -1.50896375	     -1.14827884	    -10.27451023	      9.03732988	      9.03732988	     19.21697675	      0.21916237	      0.66615061	    -12.00504006	      1.59519658	      2.75516463	     -9.59661764	    -18.69492550	     -5.60517537	     40.17442202	     46.42856527	      0.00000000	      0.00000000	     11.09945641	    -18.94693870	     -9.92865853	    100.56560320	     48.23883929	      0.00000000	      0.00000000
     48.50607143	     -6.29427654	     -1.06287864	     -2.12249202	      1.02600238	      0.91926388	      0.48437337	     27.73115725	     -5.81436861	    -12.67627775	     15.74899645	     15.74899645	      1.09041169	      4.33773997	      4.57837231	     -1.62072975	     -1.68344114	    -10.09946938	      9.64216491	      9.64216491	     19.74219852	      0.20869506	      0.51460320	    -11.89672765	      1.85838236	      2.86944733	    -10.05079555	    -18.64526352	     -5.29223602	     40.66236983	     46.37768063	      0.00000000	      0.00000000	     11.20871468	    -18.46951018	    -10.17067354	    101.87834799	     48.29089255	      0.00000000	      0.00000000
     48.51828571	     -6.44585162	     -1.28569607	     -1.80242378	      1.02651022	      0.91781513	      0.48706443	     27.62686327	     -5.46515246	    -12.71224833	     16.10767109	     16.10767109	      0.33474210	      3.36109596	      1.64790515	     -1.54747155	     -2.29410890	    -10.21670222	     10.53737703	     10.53737703	     20.46167338	      0.72921960	      0.53401947	    -11.74680093	      2.13813848	      2.32763166	    -10.34813189	    -18.75550240	     -4.27224428	     42.40550234	     46.21564390	      0.00000000	      0.00000000	     10.59316624	    -18.33017262	    -11.06679489	    103.11052413	     48.40441828	      0.00000000	      0.00000000
     48.53050000	     -6.65156498	     -1.50946614	     -1.47192763	      1.02682664	      0.91662068	      0.48972562	     27.78574942	     -5.23236061	    -12.84064713	     17.05832898	     17.05832898	      0.49074590	      2.68786707	      0.75742696	     -1.25182971	     -2.87260321	     -9.78606309	     11.65493928	     11.65493928	     20.86531167	      0.29555348	      0.33009244	    -11.52454909	      2.41712595	      2.31089242	    -10.36974976	    -18.58843324	     -3.93842266	     42.49098984	     46.18501012	      0.00000000	      0.00000000	     10.65003424	    -17.96205322	    -11.14661995	    103.35917919	     48.42453141	      0.00000000	      0.00000000
     48.54271429	     -6.81422324	     -1.79930498	     -1.15045744	      1.02712135	      0.91581974	      0.49250919	     27.87398828	     -4.92159557	    -12.89168811	     18.05968898	     18.05968898	      0.74176469	      1.83281639	     -0.07829902	     -0.78706768	     -3.57849728	     -9.39682004	     13.15833572	     13.15833572	     21.19730241	     -0.18630005	      0.02730574	    -11.40708381	      2.76621400	      2.24744172	    -10.24722284	    -18.45275421	     -3.71232064	     42.78445311	     46.15500051	      0.00000000	      0.00000000	     10.46358872	    -17.60267364	    -11.31749095	    103.56025627	     48.44623192	      0.00000000	      0.00000000
     48.55492857	     -6.97956155	     -2.11866641	     -0.87702202	      1.02742023	      0.91529496	      0.49537268	     27.91775245	     -4.55368499	    -12.88953122	     19.00535371	     19.00535371	      1.10068685	      0.95166801	     -0.80515607	     -0.11273434	     -4.35138945	     -9.01319168	     15.03753974	     15.03753974	     21.50656828	     -0.79346749	     -0.40812290	    -11.26829994	      3.13012200	      2.14514240	    -10.04440933	    -18.29559292	     -3.50456688	     43.18660896	     46.12306163	      0.00000000	      0.00000000	     10.13333529	    -17.18308046	    -11.55445641	    103.64901818	     48.46844302	      0.00000000	      0.00000000
